<?xml version="1.0" encoding="utf-8"?>
<!-- Generator: Adobe Illustrator 22.1.0, SVG Export Plug-In . SVG Version: 6.00 Build 0)  -->
<svg version="1.1" id="Laag_1" xmlns="http://www.w3.org/2000/svg" xmlns:xlink="http://www.w3.org/1999/xlink" x="0px" y="0px"
	 viewBox="0 0 134 88.6" style="enable-background:new 0 0 134 88.6;" xml:space="preserve">
<style type="text/css">
	.st0{fill:#00A9A3;}
	.st1{fill:#FFFFFF;}
</style>
<g id="Group_4285" transform="translate(14338.975 616.2)">
	<g id="Group_4281" transform="translate(0.025)">
		<path id="Path_174" class="st0" d="M-14306.7-545.9c0.2,3.7-0.5,13.5-3.6,13.9c-0.4,0-1-0.1-0.7-2.6l1.9-14.5h1.5
			C-14307-548.1-14306.7-547-14306.7-545.9 M-14214-583.5c-2.2-16.5-17.4-28.2-34-26c-1.6,0.2-3.2,0.6-4.8,1.1l-72.1,20
			c-10.6,3.4-16.5,14.7-13.1,25.4c2.6,8.1,10,13.7,18.5,14.1h5.1l-1.5,12.6c-1,7.5,2.1,9.5,5.8,8.6c3.4-1,5-3.8,5.9-7.5
			c0.9-3.6,1.2-7.3,0.8-10.9c-0.1-0.9-0.3-1.8-0.6-2.6h59.2c1.6,0,3.3,0,4.9-0.2C-14223.3-551.6-14211.8-566.9-14214-583.5"/>
		<path id="Path_175" class="st1" d="M-14287.8-586c1.8-0.5,2.9-2.3,2.4-4.1s-2.3-2.9-4.1-2.4c0,0,0,0-0.1,0c-1.8,0.4-2.8,2.2-2.4,4
			c0,0,0,0,0,0C-14291.5-586.7-14289.7-585.6-14287.8-586"/>
		<path id="Path_176" class="st1" d="M-14311.7-533.1c-0.4,0-1-0.1-0.7-2.6l1.9-15.2c1.3,0.1,2.3,1,2.4,3.9
			C-14308-543.4-14308.6-533.5-14311.7-533.1 M-14306.7-580.8c0.5-4,1.3-8.2,3.4-8.7c1.3-0.4,1.4,1.8,1.4,3.4
			c-0.4,6.1-1.3,12.1-2.7,18.1c-1,4-2.1,5.9-4.6,7L-14306.7-580.8z M-14269.2-583.5c1.9-0.5,2.5,1,1.8,4.8c-0.6,3.3-1.9,6.7-7.2,7
			C-14274.6-571.6-14273.8-582.3-14269.2-583.5 M-14220.2-598.3l-0.4,2.5c-0.6,3-2,8.3-3.4,12.7l0,0c-1.5,4.2-3.3,8.3-4.8,9.6
			c0.1-1.5-0.1-3-0.6-4.4c-0.8-3.1-4.3-11.4-4.4-19.4l-5-0.7c-0.8,5.1-2.5,12.6-3.8,17.3c-2,7.4-5.1,13.5-8.2,14.4
			c-1.2,0.4-2.6-0.1-1.8-6.8l2.5-19.7l4.6-1.2l0.4-3.2l-4.6,1.2l1.1-8.4l-5.6,1.4l-1.1,8.4l-4.9,1.3l-0.4,3.2l4.9-1.3l-1.9,15
			c-2.1,7.6-6.4,13.5-11.4,15c-6.8,1.8-5.7-7-5.7-7c7-1.1,11.2-3.7,12.4-10.1c1.4-7.1-2.5-11-7.6-9.6c-6.7,1.8-9.9,10.6-10.2,18.1
			c-2,6.9-4.8,13-7.4,13.7c-1.2,0.4-2.4-0.5-1.7-6.8l2.4-20l-5.6,1.4l-1.9,15c-2,7.1-5.3,11.2-10.9,12.6c-1.7,0.5-3.5,0.3-5-0.5
			l0.5-3.3c6.4-1.9,7.7-4.9,9.1-10.6c1.4-5.7,2.3-11.6,2.6-17.5c0.2-6.4-2.5-9.5-6.7-8.4c-3.8,1.1-6.5,4.3-7.6,13.4l-3.3,25.9
			c-0.5-0.1-0.9-0.3-1.3-0.6c-1.3-0.8-2.1-2.3-3-4.4c-1.1-2.9-6.9-27.1-7.4-28.5c-1.2,0.4-2.2,1-3.1,1.8l5.2,21.9
			c0.6,2.1,1.2,4.3,1.9,6.2c1.1,2.7,2.4,5,4.4,6.3c0.8,0.5,1.8,0.9,2.7,1l-1.7,13.4c-1,7.5,2.1,9.5,5.8,8.6c3.4-1,5-3.8,6.1-7.5
			c0.9-3.6,1.2-7.3,0.8-10.9c-0.1-1.1-0.3-2.1-0.7-3.1c4.5-0.8,8.5-3.5,10.9-7.4c0.5,5.2,3.3,6.4,6.5,5.6c3.8-1.1,6.5-5,8.6-10.5
			c1.4,4.9,5,6.8,10.2,5.5c5.2-1.4,8.9-5.2,11.3-9.7c0.6,4.9,3.3,5.8,6.7,5c5.8-1.5,9.3-9.2,11.4-17.2l0,0c0.7-2.7,1.5-5.9,2.1-8.9
			c1,4.2,2.4,8.1,3.1,10.8c1.3,5,0.6,6.7-1.5,7.2c-1.2,0.3-2.4,0.1-3.4-0.6l-2.4,2.6c0.5,0.7,3.4,2.4,8.2,1.7
			c5.7-0.8,9.1-6.3,11.4-12.1c1.6-4,2.8-8.2,3.6-12.5l0.4-4L-14220.2-598.3z"/>
		<path id="Path_177" class="st0" d="M-14220.2-608.6c-0.1-4.1,3.3-7.5,7.4-7.6c0.1,0,0.1,0,0.2,0c4.2,0,7.6,3.4,7.6,7.6
			c0,4.2-3.4,7.6-7.6,7.6C-14216.8-601-14220.2-604.4-14220.2-608.6"/>
	</g>
	<path id="Path_178" class="st1" d="M-14215-604.4l-1.3-8.3h1.2l0.7,5.1l0.6-5.1h1.2l-1.3,8.3H-14215z"/>
	<path id="Path_179" class="st1" d="M-14211.7-612.8h1.2v7.2h1.7v1.1h-2.9V-612.8z"/>
	<g id="Group_4282" transform="translate(45.979 73.907)">
		<path id="Path_180" class="st0" d="M-14337.3-603h1.4c0.5,0.1,1-0.3,1.1-0.8c0-0.1,0-0.2,0-0.3v-2.9c0-0.8-0.4-1.2-1.2-1.2h-1.3
			V-603z M-14336-614.7h-1.3v5h1.2c0.8,0,1.2-0.4,1.2-1.2v-2.6C-14335-614.3-14335.3-614.7-14336-614.7 M-14333.2-606.7v2.5
			c0.2,1.3-0.8,2.6-2.1,2.7c-0.2,0-0.4,0-0.6,0h-3.1v-14.7h3.1c1.3-0.2,2.6,0.8,2.7,2.1c0,0.2,0,0.4,0,0.6v2.1c0,1.3-0.5,2-1.3,2.3
			C-14333.6-608.7-14333-607.7-14333.2-606.7"/>
	</g>
	<path id="Path_181" class="st0" d="M-14279-542.3v1.5h-3v4.9h2.9v1.5h-2.9v5.2h3v1.5h-4.6v-14.7H-14279z"/>
	<g id="Group_4283" transform="translate(63.565 73.907)">
		<path id="Path_182" class="st0" d="M-14336-614.7h-1.4v5.5h1.3c0.8,0,1.2-0.4,1.2-1.2v-3.1
			C-14334.8-614.3-14335.2-614.7-14336-614.7 M-14333.2-606.5v5h-1.7v-4.9c0.1-0.6-0.3-1.2-0.9-1.3c-0.1,0-0.2,0-0.4,0h-1.2v6.2
			h-1.7v-14.7h3.1c1.3-0.2,2.6,0.8,2.7,2.1c0,0.2,0,0.4,0,0.6v2.7c0,1.3-0.5,2-1.3,2.3C-14333.6-608.2-14333.1-607.4-14333.2-606.5"
			/>
	</g>
	<path id="Path_183" class="st0" d="M-14264.3-531.6h2.3l-1.2-8.2L-14264.3-531.6z M-14261.4-527.6l-0.4-2.5h-2.7l-0.4,2.5h-1.7
		l2.4-14.7h2.1l2.3,14.7H-14261.4z"/>
	<path id="Path_184" class="st0" d="M-14255.1-531.6h2.3l-1.2-8.2L-14255.1-531.6z M-14252.3-527.6l-0.4-2.5h-2.7l-0.4,2.5h-1.7
		l2.3-14.7h2.1l2.3,14.7H-14252.3z"/>
	<g id="Group_4284" transform="translate(91.606 73.907)">
		<path id="Path_185" class="st0" d="M-14337.3-603h1c0.8,0.1,1.5-0.4,1.7-1.2c0-0.2,0-0.3,0-0.5v-8.2c0-1.2-0.5-1.7-1.7-1.7h-1
			V-603z M-14339-616.2h2.7c2.3,0,3.2,1.1,3.2,3.2v8.2c0,2.3-1.1,3.2-3.2,3.2h-2.7V-616.2z"/>
	</g>
</g>
</svg>
